<?xml version="1.0" encoding="UTF-8"?>
<svg id="Layer_1" xmlns="http://www.w3.org/2000/svg" viewBox="0 0 600 253.83">
  <path d="M0,121.33c.43-3.64.79-7.29,1.29-10.92C5.98,76.43,21.78,48.68,48.52,27.28,67.53,12.06,89.34,3.25,113.54.72c66.77-6.98,124.7,37.93,137.62,99.56,14.22,67.87-27.18,133.49-94.45,149.78-7.04,1.71-14.37,2.23-21.57,3.3-.88.13-1.76.31-2.64.46h-11.25c-.74-.16-1.47-.4-2.21-.45-20-1.3-38.8-6.73-55.95-17.11C27.88,214.97,7.18,183.88,1.27,143.07c-.52-3.62-.85-7.27-1.27-10.9,0-3.61,0-7.22,0-10.83ZM127.04,143.06c30.55,0,61.1-.01,91.65.03,1.75,0,2.53-.38,2.81-2.32,1.48-10.33,1.25-20.6-.52-30.88-7.29-42.35-44.1-75.53-87.05-78.15-26.85-1.64-50.77,6.13-70.63,24.37-24.74,22.73-34.72,51.16-30.6,84.54.25,2,1.03,2.45,2.9,2.45,30.48-.05,60.96-.04,91.44-.04ZM59.72,194.4c21.27,20.26,46.49,29.76,75.83,27.33,22.95-1.9,42.58-11.38,58.9-27.41-7.75-7.74-15.24-15.24-22.55-22.54-29.88,24.25-59.71,24.24-89.62-.02-7.32,7.34-14.8,14.85-22.56,22.63Z"/>
  <path d="M600,134.66c-.8.14-1.6.4-2.4.4-8.33.03-16.66.02-24.99.02-.75,0-1.5,0-2.25,0,.09,4.32,3.47,8.32,8.03,9.69,5.79,1.74,10.54.08,14.26-5.17,1.88,1.19,3.78,2.39,5.81,3.67-1.62,2.98-3.8,5.18-6.7,6.49-6.43,2.89-12.97,3.01-19.3-.17-7.72-3.87-11.4-13.2-9.01-22.13,2.29-8.58,9.96-14.25,18.89-13.98,8.65.27,15.39,6.15,17.22,15.03.11.53.29,1.04.43,1.57v4.58ZM570.31,129.31h22.16c-.86-6.01-5.07-9.82-10.68-9.87-5.88-.05-10.63,3.94-11.49,9.87Z"/>
  <path d="M359.6,150.88h-7.38c0-.81,0-1.55,0-2.29,0-6.52.08-13.05-.03-19.57-.11-6.55-5.35-10.37-11.5-8.56-3.72,1.1-6.19,4.25-6.22,8.16-.05,6.59-.02,13.19-.02,19.78,0,.75,0,1.5,0,2.41h-7.23v-36.35h6.71c.08,1.28.16,2.49.26,4.11,3.54-3.63,7.56-5.31,12.3-5.09,4.81.22,8.72,2.05,11.22,6.55,3.96-5.63,9.36-7.26,15.66-6.29,6.15.95,10.68,5.27,11.03,11.56.46,8.43.11,16.9.11,25.52h-7.04c0-.73,0-1.47,0-2.2,0-6.39.06-12.77-.02-19.16-.09-6.86-5.25-10.85-11.54-9.02-3.78,1.1-6.28,4.33-6.3,8.34-.04,6.52-.01,13.05-.01,19.57,0,.76,0,1.51,0,2.52Z"/>
  <path d="M326.07,185.39c.33-.16.39-.22.45-.22q6.87-.44,8.44,6.17c1.65,6.95,3.31,13.9,4.97,20.85.14.59.34,1.16.69,2.32,1.85-6.88,3.54-13.16,5.23-19.44.76-2.81,1.55-5.62,2.24-8.45.28-1.15.8-1.59,2-1.52,2.14.12,4.87-.68,6.28.35,1.39,1.02,1.5,3.83,2.07,5.89,1.87,6.75,3.69,13.52,5.53,20.28.18.65.4,1.29.99,1.95.99-4.13,1.99-8.26,2.97-12.39,1.14-4.79,2.29-9.58,3.39-14.38.27-1.17.69-1.8,2.05-1.7,1.86.13,3.73.03,5.92.03-.63,2.34-1.19,4.46-1.76,6.58-2.51,9.38-5.05,18.76-7.5,28.15-.37,1.43-.88,2.15-2.48,2-1.65-.15-3.33-.11-4.99,0-1.35.09-1.92-.41-2.29-1.73-2.24-8.09-4.58-16.15-6.88-24.22-.17-.6-.36-1.19-.72-2.4-.4,1.16-.66,1.8-.84,2.45-2.26,8.01-4.54,16.02-6.71,24.05-.38,1.4-.95,1.95-2.41,1.84-2.2-.16-5.02.66-6.47-.43-1.42-1.07-1.52-3.97-2.1-6.09-2.55-9.3-5.07-18.61-7.59-27.91-.18-.66-.31-1.33-.48-2.03Z"/>
  <path d="M461.83,80.05h-6.62v-4.93c-.48.22-.69.26-.8.38-5.14,5.69-11.52,6.78-18.42,4.39-7.22-2.49-10.81-8.14-11.75-15.53-.46-3.62-.06-7.2,1.34-10.63,4.67-11.45,18.77-14.72,27.88-6.48.24.22.51.41,1.04.85v-18.66h7.33v50.6ZM443.14,49.17c-6.76,0-11.86,5.48-11.82,12.69.05,7.27,5.16,12.73,11.87,12.66,6.86-.07,11.75-5.37,11.74-12.74,0-7.41-4.87-12.61-11.8-12.61Z"/>
  <path d="M493.86,189.69v-18.57h7.2v50.57h-6.64v-5.4c-4.21,5.1-9.17,6.83-14.99,6.27-4.39-.42-8.11-2.26-11.12-5.5-6.53-7.02-6.69-19.54-.35-26.8,6.45-7.37,15.87-7.67,25.9-.58ZM494.16,203.49c.01-7.45-4.79-12.63-11.73-12.64-6.79-.01-11.84,5.39-11.82,12.64.02,7.34,5.01,12.7,11.8,12.67,6.89-.03,11.74-5.26,11.75-12.67Z"/>
  <path d="M390.51,114.43h6.53v5.55c4.38-5.09,9.41-6.97,15.39-6.3,4.39.5,8.11,2.34,11.04,5.65,6.44,7.26,6.36,19.61-.14,26.8-6.52,7.21-15.81,7.48-25.61.55v16.63h-7.21v-48.88ZM397.36,131.59c-.11,6.8,2.85,11.43,7.8,13.1,5.88,1.97,11.91-.55,14.51-6.08,2.83-6.02.94-13.63-4.28-16.85-3.86-2.38-7.93-2.46-11.89-.36-4.37,2.31-5.98,6.32-6.13,10.19Z"/>
  <path d="M293.51,60.64v19.38h-7.14V31.89c.64-.05,1.25-.13,1.85-.13,5.48,0,10.96-.02,16.44.01,1.31,0,2.64.11,3.93.32,8.17,1.39,12.55,6.85,12.25,15.16-.27,7.26-5.65,12.63-13.51,13.21-3.66.27-7.35.13-11.02.17-.82,0-1.64,0-2.79,0ZM293.65,53.86c4.76,0,9.28.33,13.73-.1,3.65-.36,5.81-3.36,5.99-6.95.2-3.96-1.61-7.34-5.26-7.92-4.72-.75-9.57-.63-14.46-.89v15.87Z"/>
  <path d="M458.31,205.97h-29.11c.06,4.15,3.33,8.13,7.67,9.55,5.83,1.91,10.6.29,14.62-5.06,1.84,1.16,3.7,2.32,5.92,3.72-1.12,1.37-2.01,2.74-3.17,3.84-5.27,5.06-15.47,6.18-22.68,2.58-7-3.5-10.77-10.97-9.84-19.52.83-7.7,6.48-14.27,13.92-16.2,13-3.37,25.29,7.83,22.67,21.08ZM451.22,200.29c-.49-6.21-5.53-10.43-11.57-9.97-5.72.44-10.65,5.16-10.31,9.97h21.88Z"/>
  <path d="M322.15,135.09h-29.18c-.03,4.07,3.27,8.14,7.61,9.58,5.84,1.93,10.78.28,14.66-5.05,1.88,1.19,3.77,2.39,5.8,3.67-2.89,5.09-7.24,7.67-12.68,8.24-2.92.31-6.01.26-8.88-.34-9-1.87-14.46-9.69-14.08-19.65.35-9.08,7.12-16.56,16.21-17.91,8.62-1.29,16.84,3.66,19.71,11.91,1.06,3.05,1.44,6.17.83,9.56ZM315,129.37c-.62-6.02-5.24-10.08-11.02-9.93-5.84.15-10.7,4.48-10.98,9.93h22Z"/>
  <path d="M558.19,135.08h-29.63c.28,4.56,3.64,8.44,8.3,9.75,5.75,1.63,10.36-.04,14.05-5.23,1.89,1.2,3.79,2.4,5.82,3.69-1.97,3.47-4.66,5.86-8.24,7.15-5.28,1.89-10.63,1.98-15.9.01-8.3-3.1-12.92-11.96-11.25-21.39,1.56-8.79,9.13-15.41,17.82-15.59,9.29-.19,16.64,5.5,18.48,14.48.45,2.2.36,4.52.54,7.13ZM550.69,129.43c-.62-6.27-5.51-10.4-11.56-9.96-5.71.41-10.55,5.02-10.36,9.96h21.91Z"/>
  <path d="M304.41,222.62c-11.14-.05-19.07-8.09-19.02-19.27.04-11.04,8.21-19.06,19.35-19,11.23.06,19.41,8.25,19.31,19.33-.1,11.1-8.29,19-19.64,18.94ZM304.67,216.05c7.02.01,11.95-5.08,12-12.39.05-7.49-4.81-12.73-11.84-12.77-7.11-.03-12.05,5.06-12.12,12.51-.07,7.39,4.89,12.63,11.96,12.65Z"/>
  <path d="M464.21,151.81c-11.18,0-19.24-7.98-19.26-19.07-.02-11.19,8.08-19.23,19.34-19.21,11.16.03,19.27,8.04,19.31,19.09.05,11.1-8.13,19.19-19.4,19.19ZM464.3,145.24c7.04-.02,12-5.27,11.95-12.68-.04-7.33-4.96-12.49-11.92-12.51-7.05-.02-12.07,5.19-12.09,12.58-.02,7.36,5.01,12.62,12.05,12.61Z"/>
  <path d="M383.39,61.95c-.04,11.1-8.1,19.03-19.36,19.02-11.18,0-19.3-8.06-19.3-19.12,0-11.15,8.24-19.24,19.5-19.16,11.19.09,19.19,8.13,19.16,19.25ZM376.06,61.91c.03-7.48-4.85-12.68-11.92-12.69-7.05-.01-12.05,5.22-12.05,12.6,0,7.37,5.02,12.61,12.07,12.58,6.99-.02,11.87-5.16,11.9-12.5Z"/>
  <path d="M383.18,185.24h6.69c.06,1.28.12,2.54.21,4.26,2.83-2.81,5.84-4.45,9.44-5.02,9.52-1.51,16.87,4.01,17.31,13.58.35,7.62.08,15.27.08,22.91,0,.19-.11.39-.21.72h-7.02c-.03-.71-.09-1.45-.09-2.18-.01-6.39.07-12.78-.05-19.16-.14-7.28-6.11-11.29-12.99-8.87-3.86,1.36-6.14,4.56-6.15,8.72-.01,7.08,0,14.15,0,21.41h-7.22v-36.36Z"/>
  <path d="M413.04,43.55h7.14v36.39h-6.65c-.06-1.21-.12-2.43-.18-3.89-.46.32-.8.5-1.08.75-4.63,4.28-10.05,5.1-15.9,3.39-5.46-1.6-8.94-6.26-9.14-12.61-.24-7.77-.08-15.55-.08-23.32,0-.19.12-.38.21-.68h6.99c.04.78.1,1.52.1,2.26,0,6.46,0,12.91,0,19.37,0,3.69,1.28,6.76,4.82,8.29,3.77,1.62,7.49,1.3,10.78-1.34,2.07-1.66,2.98-3.92,2.97-6.59-.02-6.53,0-13.05,0-19.58,0-.75,0-1.5,0-2.45Z"/>
  <path d="M489.44,92.64c1.69-4.22,3.25-8.13,4.53-11.32-1.07-1.51-2.07-2.44-2.5-3.59-3.99-10.51-7.89-21.05-11.81-31.59-.29-.77-.52-1.56-.88-2.64,2.38,0,4.57-.11,6.74.08.51.05,1.1,1.08,1.35,1.77,3.05,8.64,6.04,17.3,9.05,25.95.26.75.58,1.49,1.04,2.65.44-1.1.73-1.78.99-2.48,3.25-8.71,6.53-17.41,9.71-26.15.51-1.4,1.17-1.98,2.68-1.87,1.77.14,3.55.03,5.56.03-.31.91-.51,1.56-.75,2.19-5.92,15.05-11.87,30.08-17.74,45.15-.54,1.38-1.21,1.98-2.71,1.86-1.63-.13-3.28-.03-5.25-.03Z"/>
  <path d="M483.82,114.49c.33-.11.4-.15.47-.15q6.8-.39,9.02,5.98c2.58,7.4,5.16,14.81,7.74,22.21.22.62.48,1.23.88,2.27.71-1.83,1.27-3.23,1.8-4.64,2.98-8,5.99-15.98,8.9-24.01.51-1.4,1.16-1.99,2.68-1.87,1.77.14,3.55.03,5.62.03-.6,1.58-1.07,2.86-1.57,4.14-5.64,14.33-11.32,28.66-16.9,43.01-.61,1.57-1.37,2.18-3.03,2.01-1.51-.15-3.04-.03-4.99-.03,1.67-4.18,3.24-8.12,4.56-11.42-1.04-1.32-2.03-2.12-2.42-3.14-4.11-10.83-8.13-21.7-12.17-32.57-.21-.57-.37-1.16-.59-1.83Z"/>
  <path d="M440.09,150.88h-7.02v-50.65h7.02v50.65Z"/>
  <path d="M474.88,29.4v50.55h-7.16V29.4h7.16Z"/>
  <path d="M342.73,49.34c-1.34.26-2.58.4-3.77.74-4.5,1.26-6.94,4.49-6.95,9.15-.01,6.11,0,12.21,0,18.32,0,.75,0,1.5,0,2.42h-7.25v-36.32h6.72c.05,1.21.11,2.43.19,4.23,3.16-3.32,6.65-5.16,11.07-5.21v6.68Z"/>
  <path d="M515.02,217.86c.03,2.64-1.93,4.63-4.55,4.62-2.52-.01-4.52-1.95-4.58-4.43-.06-2.63,1.87-4.64,4.49-4.68,2.7-.05,4.6,1.8,4.64,4.49Z"/>
  <path d="M66.54,110.41c5.07-22.06,27.81-47.2,62.05-46.45,32.87.71,54.31,25.39,59.06,46.45h-121.11Z"/>
</svg>