<?xml version="1.0" encoding="utf-8"?>
<!-- Generator: Adobe Illustrator 26.2.1, SVG Export Plug-In . SVG Version: 6.00 Build 0)  -->
<svg version="1.1" xmlns="http://www.w3.org/2000/svg" xmlns:xlink="http://www.w3.org/1999/xlink" x="0px" y="0px"
	 viewBox="0 0 136.94 200.11" style="enable-background:new 0 0 136.94 200.11;" xml:space="preserve">
<g id="Logo">
	<g>
		<path d="M48.27,66.92h19.98c4.86,0,11.27,0,14.58,2.01c3.63,2.16,6.48,6.09,6.48,11.5c0,5.86-3.08,10.26-8.18,12.34v0.16
			c6.79,1.39,10.49,6.48,10.49,13.27c0,8.1-5.79,15.82-16.74,15.82H48.27V66.92z M55.6,90.6h14.67c8.33,0,11.73-3.01,11.73-8.8
			c0-7.64-5.4-8.72-11.73-8.72H55.6V90.6z M55.6,115.83h18.37c6.32,0,10.34-3.86,10.34-9.87c0-7.18-5.79-9.18-11.96-9.18H55.6
			V115.83z"/>
		<path d="M110.37,94.48c0,23.14-18.76,41.9-41.91,41.9c-23.14,0-41.9-18.76-41.9-41.9c0-23.14,18.76-41.9,41.9-41.9
			C91.61,52.59,110.37,71.35,110.37,94.48z M68.47,46.2c-26.65,0-48.26,21.61-48.26,48.26c0,26.65,21.61,48.26,48.26,48.26
			c26.66,0,48.27-21.61,48.27-48.26C116.74,67.81,95.13,46.2,68.47,46.2z"/>
	</g>
</g>
</svg>