<?xml version="1.0" encoding="UTF-8"?>
<svg id="Layer_1" xmlns="http://www.w3.org/2000/svg" viewBox="0 0 600 253.83">
  <path d="M0,121.33c.43-3.64.79-7.29,1.29-10.92C5.98,76.43,21.78,48.68,48.52,27.28,67.53,12.06,89.34,3.25,113.54.72c66.77-6.98,124.7,37.93,137.62,99.56,14.22,67.87-27.18,133.49-94.45,149.78-7.04,1.71-14.37,2.23-21.57,3.3-.88.13-1.76.31-2.64.46h-11.25c-.74-.16-1.47-.4-2.21-.45-20-1.3-38.8-6.73-55.95-17.11C27.88,214.97,7.18,183.88,1.27,143.07c-.52-3.62-.85-7.27-1.27-10.9,0-3.61,0-7.22,0-10.83Z"/>
  <path d="M515.02,217.86c.03,2.64-1.93,4.63-4.55,4.62-2.52-.01-4.52-1.95-4.58-4.43-.06-2.63,1.87-4.64,4.49-4.68,2.7-.05,4.6,1.8,4.64,4.49Z"/>
  <path d="M66.54,110.41c5.07-22.06,27.81-47.2,62.05-46.45,32.87.71,54.31,25.39,59.06,46.45h-121.11Z"/>
</svg>